<svg t="1741325002031" class="icon" viewBox="0 0 1024 1024" version="1.1" xmlns="http://www.w3.org/2000/svg" p-id="1294" width="48" height="48"><path d="M748.544 744.192h-40.1408v118.8864a95.8464 95.8464 0 0 1-95.8464 95.8464 95.8464 95.8464 0 0 1-95.7952-95.8464v-118.8864h-248.832a111.3088 111.3088 0 0 1-111.3088-111.36 110.9504 110.9504 0 0 1 15.6672-56.9344l265.6256-440.32a145.664 145.664 0 0 1 124.7744-70.5024 145.7152 145.7152 0 0 1 145.7152 145.7152v377.5488h40.1408a77.9264 77.9264 0 0 1 77.8752 77.9264 77.8752 77.8752 0 0 1-77.8752 77.9264z m-231.7824-155.8528V462.5408c0-54.272 5.7856-136.2432 8.0896-190.464h-4.608c-21.9648 48.4864-45.056 98.0992-69.2736 146.5856l-98.1504 169.6768z" fill="#71DCBA" p-id="1295"></path><path d="M383.1808 535.9104l67.7888-117.248c15.9232-31.7952 31.2832-64.1024 46.08-96.256A134.8096 134.8096 0 0 1 471.04 272.0768c-21.4016-93.5936 43.52-81.4592 78.08-157.4912 7.936-17.5616 3.6864-33.5872-7.5264-47.872a145.6128 145.6128 0 0 0-103.424 68.8128l-265.6256 440.32a111.36 111.36 0 0 0 95.6416 168.2944h248.832c-175.0016 0.0512-297.472-122.0096-133.8368-208.2304zM516.7616 744.192v118.8864A95.7952 95.7952 0 0 0 588.8 955.8528c-59.8528-54.272-21.8112-194.7136-72.0384-211.6608z" fill="#58C49A" p-id="1296"></path><path d="M520.8064 350.9248c-2.0992 39.3216-4.0448 80.128-4.0448 111.616v15.0016c73.8816-44.032 41.3184-83.0464 4.0448-126.6176z" fill="#58C49A" p-id="1297"></path><path d="M612.5568 969.1648a106.1376 106.1376 0 0 1-106.0352-106.0864v-108.6464h-238.592a121.6 121.6 0 0 1-104.448-183.808L183.296 537.6a10.24 10.24 0 1 1 17.5104 10.5472l-19.7632 32.8192a101.12 101.12 0 0 0 87.04 152.7808h248.832a10.24 10.24 0 0 1 10.24 10.24v118.8864a85.6064 85.6064 0 1 0 171.1616 0v-118.6816a10.24 10.24 0 0 1 10.24-10.24h40.1408a67.6864 67.6864 0 0 0 0-135.3728h-40.1408a10.24 10.24 0 0 1-10.24-10.24V453.7856a10.24 10.24 0 0 1 20.48 0v124.3136h29.9008a88.1664 88.1664 0 0 1 0 176.3328h-29.9008v108.6464a106.1888 106.1888 0 0 1-106.24 106.0864z m-95.7952-370.5856h-163.84a10.24 10.24 0 0 1-8.8576-5.12 10.24 10.24 0 0 1 0-10.24l97.8944-169.4208c20.992-41.984 42.9056-88.4224 68.9152-145.9712a10.24 10.24 0 0 1 9.3696-5.9904h4.608a10.24 10.24 0 0 1 7.3728 3.1232 10.24 10.24 0 0 1 2.8672 7.5264c-0.768 17.152-1.792 37.0176-2.9696 57.9072-2.4064 44.6464-5.12 95.232-5.12 132.1472v125.7984a10.24 10.24 0 0 1-10.24 10.24z m-146.176-20.48h135.936V462.5408c0-37.4784 2.7648-88.3712 5.12-133.12 0.3072-5.12 0.5632-10.5472 0.8704-15.6672-19.0464 41.3184-35.84 76.8-52.4288 109.6704l-0.3072 0.512zM250.88 455.936a10.24 10.24 0 0 1-5.12-1.4848 10.24 10.24 0 0 1-3.7376-14.1312l187.136-310.0672a155.9552 155.9552 0 0 1 289.4848 80.5376V348.16a10.24 10.24 0 1 1-20.48 0V210.7904A135.4752 135.4752 0 0 0 446.6688 140.8L259.584 450.9696a10.24 10.24 0 0 1-8.704 4.9664z" fill="#231815" p-id="1298"></path><path d="M253.275976 340.548466m23.096319 10.922512l197.360122 93.333848q23.096318 10.922512 12.173806 34.01883l-22.786242 48.182901q-10.922512 23.096318-34.01883 12.173806l-197.360122-93.333848q-23.096318-10.922512-12.173807-34.018831l22.786242-48.1829q10.922512-23.096318 34.018831-12.173806Z" fill="#FF8E9E" p-id="1299"></path><path d="M276.41344 351.43168l53.504 25.30304a17.3056 17.3056 0 0 1 8.2432 23.04L308.3264 462.86336a17.3056 17.3056 0 0 1-23.04 8.2432l-53.504-25.29792a25.6 25.6 0 0 1-12.20096-34.08896l22.74304-48.09216a25.6 25.6 0 0 1 34.08896-12.19584z" fill="#E26F85" p-id="1300"></path><path d="M439.9616 551.8848a35.4816 35.4816 0 0 1-15.36-3.4304L227.3792 455.1168a35.84 35.84 0 0 1-17.1008-47.7184l22.784-48.128a35.84 35.84 0 0 1 47.6672-17.0496l197.376 93.3376a35.84 35.84 0 0 1 17.0496 47.6672l-22.784 48.1792a35.84 35.84 0 0 1-20.48 18.3808 35.3792 35.3792 0 0 1-11.9296 2.0992zM265.472 359.2192a14.8992 14.8992 0 0 0-5.12 0.9216 15.36 15.36 0 0 0-8.704 7.8848l-22.784 48.128a15.36 15.36 0 0 0-0.5632 11.7248 15.0016 15.0016 0 0 0 7.8848 8.704l197.2736 93.3376a15.36 15.36 0 0 0 11.7248 0.5632 15.0528 15.0528 0 0 0 8.6528-7.8848l22.784-48.128a15.36 15.36 0 0 0-7.2704-20.48L271.9744 360.704a15.36 15.36 0 0 0-6.5024-1.4848z" fill="#231815" p-id="1301"></path><path d="M351.8976 444.0064m-96.5632 0a96.5632 96.5632 0 1 0 193.1264 0 96.5632 96.5632 0 1 0-193.1264 0Z" fill="#B28AE4" p-id="1302"></path><path d="M364.0832 401.1008c17.0496-6.4512 30.72-23.5008 40.2944-38.0416a96.512 96.512 0 1 0-57.7024 177.3568h6.2976c1.536-9.0624-0.9728-19.0976-12.3392-28.416-32.2048-26.3168-8.5504-98.7136 23.4496-110.8992z" fill="#9675CC" p-id="1303"></path><path d="M334.08 549.1712a11.264 11.264 0 0 1-1.8432 0 106.6496 106.6496 0 1 1 42.752-0.6656 10.24 10.24 0 1 1-4.4544-20.0192 86.272 86.272 0 1 0-34.56 0.5632 10.24 10.24 0 0 1-1.8944 20.48z" fill="#231815" p-id="1304"></path><path d="M351.8976 444.0064m-44.5952 0a44.5952 44.5952 0 1 0 89.1904 0 44.5952 44.5952 0 1 0-89.1904 0Z" fill="#FFCE71" p-id="1305"></path><path d="M354.304 399.36a44.5952 44.5952 0 0 0-28.7232 80.5376c-2.6624-31.2832 15.8208-70.2464 38.5024-78.8992A47.0016 47.0016 0 0 0 354.304 399.36z" fill="#E8AF54" p-id="1306"></path><path d="M351.9488 498.8416h-3.0208A54.8864 54.8864 0 1 1 406.6816 446.976a54.9376 54.9376 0 0 1-54.7328 51.8656z m0-89.1904a34.3552 34.3552 0 1 0 34.304 36.2496A34.4064 34.4064 0 0 0 353.7408 409.6z m44.544 36.7616z" fill="#231815" p-id="1307"></path><path d="M364.0832 455.68h-1.0752l-12.1856-1.28a10.24 10.24 0 0 1-9.1136-11.264l1.0752-10.24a10.24 10.24 0 1 1 20.48 2.1504h1.9968a10.24 10.24 0 0 1-1.0752 20.48z" fill="#231815" p-id="1308"></path><path d="M504.0128 676.8128a31.0784 23.296 0 1 0 62.1568 0 31.0784 23.296 0 1 0-62.1568 0Z" fill="#FF8E9E" p-id="1309"></path><path d="M615.9872 676.8128a31.0784 23.296 0 1 0 62.1568 0 31.0784 23.296 0 1 0-62.1568 0Z" fill="#FF8E9E" p-id="1310"></path><path d="M700.4672 634.88a7.4752 7.4752 0 0 0-8.9088-5.632c-20.48 4.5568-47.7696 0-48.0768 0a7.4752 7.4752 0 1 0-2.5088 14.6944c0.4608 0 4.6592 0.8192 10.9568 1.4336a18.3808 18.3808 0 0 0-1.024 5.8368 18.9952 18.9952 0 1 0 37.9904 0 20.0192 20.0192 0 0 0-1.0752-6.0928c2.3552-0.3072 4.7104-0.7168 7.0144-1.2288a7.5264 7.5264 0 0 0 5.632-9.0112zM524.6976 633.6c1.6896-1.4848 3.4304-3.1232 5.12-5.12a7.4752 7.4752 0 0 0-10.8544-10.24c-14.7968 15.7696-29.44 14.848-30.208 14.7968a7.424 7.424 0 0 0-1.4848 14.7968 13.0048 13.0048 0 0 0 2.1504 0 39.9872 39.9872 0 0 0 6.5536-0.5632v2.1504a18.9952 18.9952 0 1 0 28.928-16.128zM609.28 700.416a7.424 7.424 0 0 0-10.24 1.8944 9.4208 9.4208 0 0 1-6.1952 1.8432 7.4752 7.4752 0 0 1-5.7856-3.4304 8.6016 8.6016 0 0 1 1.2288-11.1104 7.5264 7.5264 0 0 0-0.4608-10.8032c-0.3072-0.256-8.192-7.424-4.0448-12.5952s12.032-1.024 13.4656 0a7.424 7.424 0 0 0 8.8064-11.9808c-7.9872-5.9392-23.6544-10.24-33.8944 2.6624-8.1408 10.24-4.0448 21.0944 1.28 28.16a22.9888 22.9888 0 0 0 19.968 33.9968 22.3744 22.3744 0 0 0 17.6128-8.192 7.5264 7.5264 0 0 0-1.7408-10.4448z" p-id="1311"></path><path d="M807.168 822.4768m-44.5952 0a44.5952 44.5952 0 1 0 89.1904 0 44.5952 44.5952 0 1 0-89.1904 0Z" fill="#FFCE71" p-id="1312"></path><path d="M807.168 877.312h-3.0208a54.8864 54.8864 0 1 1 57.7536-51.8144 54.9376 54.9376 0 0 1-54.7328 51.8144z m0-89.1904a34.3552 34.3552 0 1 0 34.3552 36.1984 34.4064 34.4064 0 0 0-32.4608-36.1472z m44.5952 36.7616z" fill="#231815" p-id="1313"></path><path d="M819.2 833.9968h-1.0752l-12.2368-1.28a10.24 10.24 0 0 1-9.0624-11.264l1.0752-10.24a10.24 10.24 0 1 1 20.48 2.1504h1.9968a10.24 10.24 0 0 1-1.0752 20.48z" fill="#231815" p-id="1314"></path></svg>