<svg t="1741325297900" class="icon" viewBox="0 0 1024 1024" version="1.1" xmlns="http://www.w3.org/2000/svg" p-id="949" width="64" height="64"><path d="M507.665099 598.216369h-106.445908l-29.140169 80.918156h-62.856068l113.911571-297.904045h62.856068l113.911571 297.904045H537.046096l-29.380997-80.918156z m-15.412982-42.626529l-37.809972-104.278457-37.809972 104.278457h75.619944zM633.618062 380.989652h58.039511v297.904045h-58.039511V380.989652z" p-id="950"></path><path d="M910.329257 413.019755v-30.825964h-94.163688v-112.707432c0-24.56444-19.747883-44.312324-44.312323-44.312323h-123.303857V129.806209h-30.825965v95.367827h-91.032925V129.806209h-30.825965v95.367827h-91.032925V129.806209h-30.825965v95.367827h-123.303857c-24.56444 0-44.312324 19.747883-44.312323 44.312323v112.707432H110.780809v30.825964h95.608655v91.032926H110.780809v30.825964h95.608655V626.152399H110.780809v30.825964h95.608655v133.659454c0 24.56444 19.747883 44.312324 44.312323 44.312324h123.303857v95.367827h30.825965v-95.367827h91.032925v95.367827h30.825965v-95.367827h91.032925v95.367827h30.825965v-95.367827h123.303857c24.56444 0 44.312324-19.747883 44.312323-44.312324v-133.659454h94.163688V626.152399h-94.163688v-91.032926h94.163688v-30.825964h-94.163688v-91.032926h94.163688z m-141.847601 354.739417c0 10.596425-8.669802 19.507056-19.507056 19.507056H273.580433c-10.596425 0-19.507056-8.669802-19.507056-19.507056V292.365005c0-10.596425 8.669802-19.507056 19.507056-19.507056H748.9746c10.596425 0 19.507056 8.669802 19.507056 19.507056v475.394167z" p-id="951"></path></svg>